/* XPM */
static char *x32[]={
"32 32 210 2",
"Qt c None",
".# c #000000",
"bd c #000008",
"be c #000018",
"a4 c #001029",
"a7 c #001831",
"a5 c #002041",
"bk c #080031",
"at c #080808",
"a1 c #080820",
"bh c #082952",
"b# c #08396a",
"bj c #100852",
"bc c #101018",
"b. c #101031",
"bf c #105294",
"ak c #180000",
"bb c #181841",
"a# c #182020",
"ba c #183152",
"aa c #202931",
"a. c #203129",
"as c #290000",
"az c #291008",
"bl c #291852",
"bn c #291862",
"#4 c #293131",
"bg c #29416a",
"#2 c #313939",
"#9 c #314139",
"an c #390000",
"bo c #39206a",
"#V c #392920",
"bi c #39314a",
"#3 c #394a4a",
"ad c #410000",
"af c #411010",
"#1 c #412929",
"bm c #41297b",
"#R c #415252",
"#M c #4a414a",
"#N c #4a5a5a",
"ae c #520000",
"#8 c #524a4a",
"#0 c #5a0800",
"#z c #5a5a62",
"#S c #5a6a62",
"al c #620000",
"bp c #62419c",
".Z c #625a5a",
"#A c #626a6a",
"ar c #6a0800",
"#y c #6a2010",
"ab c #6a4a29",
"#Q c #6a7373",
".L c #736262",
"ag c #7b0000",
"aB c #7b0800",
"#D c #7b2018",
"#B c #7b7b7b",
".7 c #7b8383",
"aI c #831800",
"aT c #833108",
".P c #835241",
"#C c #838b83",
"#m c #838b8b",
"#5 c #8b0000",
"#k c #8b3918",
".E c #8b4a39",
".D c #8b8383",
"#E c #8b8b8b",
"#P c #8b948b",
"#l c #8b9c9c",
"am c #940000",
"#T c #941000",
"aw c #941810",
"aK c #944a29",
".U c #949494",
"#F c #949c94",
"#O c #949c9c",
"#7 c #9c2018",
"aN c #9c4a00",
"#q c #9c6252",
".u c #9c8352",
".Y c #9c9c9c",
"ap c #a40000",
"a0 c #a42900",
"aj c #a42918",
"#G c #a49483",
".N c #a49c94",
"## c #a4acac",
"aS c #ac1800",
"aQ c #ac6a4a",
"ao c #b40000",
"aC c #b40800",
"av c #b40808",
"aV c #b43100",
".a c #b4945a",
".6 c #b4946a",
".O c #b4acac",
".V c #b4bdbd",
"aF c #bd0000",
"ay c #bd1000",
"#U c #bd2008",
"aq c #bd3910",
"aO c #bd4129",
".C c #bd6a29",
".o c #bd8320",
".M c #bdbdbd",
"#a c #bdc5bd",
"aE c #c50000",
"aG c #c50800",
"a9 c #c51800",
"#o c #c5c5bd",
".W c #c5c5c5",
"a8 c #cd2000",
"aJ c #cd5a31",
"au c #cd6a10",
"#W c #cd7339",
".S c #cd8331",
"#H c #cd835a",
".f c #cdb441",
"#p c #cdd5c5",
".X c #cdd5d5",
"aR c #d50000",
"ai c #d50800",
".K c #d58318",
".T c #d5dede",
"a3 c #de0000",
"a2 c #de0800",
"aM c #de1800",
"#K c #de7341",
"aU c #de8300",
"#r c #de8352",
"aW c #deac10",
".p c #debd39",
".g c #debd4a",
".b c #debd52",
".F c #dec54a",
".0 c #dedede",
"ah c #e61800",
"aH c #e62000",
"aA c #e67339",
"ax c #e68318",
"#J c #e68b52",
"#Y c #e69c62",
"aZ c #e6b410",
"aY c #e6c520",
".8 c #e6e6e6",
"aD c #ee7308",
"#d c #ee7320",
".R c #ee8329",
".Q c #ee8331",
"#g c #ee8339",
"#h c #ee8b31",
"#c c #ee9c29",
"aX c #eec518",
".d c #eed562",
".e c #eee673",
"#n c #eeeeee",
"a6 c #f61000",
"#i c #f67b39",
".5 c #f68b29",
"#X c #f6945a",
".J c #f6a418",
"ac c #f6a473",
"aL c #f6ac10",
".4 c #f6b439",
".c c #f6cd31",
".3 c #f6cd4a",
".9 c #f6ffff",
"#6 c #ff2900",
"#j c #ff7b29",
"#x c #ff8339",
"#f c #ff8b4a",
"#e c #ff8b52",
"#L c #ff945a",
"#w c #ff9c52",
"#I c #ff9c62",
"#v c #ffac7b",
"#s c #ffb46a",
"#Z c #ffb473",
"#u c #ffb47b",
".B c #ffbd10",
".I c #ffbd20",
"#t c #ffbd7b",
"aP c #ffc583",
".t c #ffcd20",
".A c #ffde29",
".y c #ffde41",
".H c #ffe639",
".r c #ffe64a",
".j c #ffe65a",
"#b c #ffe66a",
".1 c #ffe68b",
".n c #ffee4a",
".z c #ffee52",
".G c #ffee5a",
".2 c #ffee73",
".v c #fff65a",
".s c #fff66a",
".i c #fff673",
".x c #fff683",
".m c #ffff52",
".q c #ffff7b",
".h c #ffff8b",
".l c #ffff94",
".w c #ffff9c",
".k c #ffffac",
"#. c #ffffff",
"QtQtQtQtQtQtQtQt.#.#.#.#.#.#QtQtQtQtQtQtQtQtQtQtQtQtQtQtQtQtQtQt",
"QtQtQtQtQtQtQt.#.a.b.c.d.e.f.#.#QtQtQtQtQtQtQtQtQtQtQtQtQtQtQtQt",
"QtQtQtQtQtQt.#.g.h.i.j.k.l.m.n.o.#QtQtQtQtQtQtQtQtQtQtQtQtQtQtQt",
"QtQtQtQtQt.#.p.q.l.r.i.k.s.n.n.t.#QtQtQtQtQtQtQtQtQtQtQtQtQtQtQt",
"QtQtQt.#.#.u.v.w.x.y.x.l.z.r.A.B.C.#.#.#.#.#.#.#QtQtQtQtQtQtQtQt",
"QtQt.#.D.E.F.h.w.G.H.i.l.G.H.I.J.K.L.M.D.N.O.O.O.#.#QtQtQtQtQtQt",
"Qt.#.D.P.b.n.l.w.n.z.q.G.H.A.Q.R.S.T.M.U.V.W.X.W.Y.Z.#QtQtQtQtQt",
".#.N.0.E.1.2.h.3.4.3.j.c.R.J.5.R.6.X.7.V.8.9#.#..0##.L.#QtQtQtQt",
".##a.E.2.2#b#c#d#e#f#g#h#f#i#j#k.D#l#m.W.0#n#n.8#o##.Z.#QtQtQtQt",
".####p#q#q#q#r#s#t#t#u#v#s#w#x#y#z#A#B.M.M.W#a###C.7#D.#QtQtQtQt",
".##E#F.O.V.V#G#H#I#u#u#J#K#L#f#y#M#N#N#O#O#O#P#Q#R#S#T#U.#QtQtQt",
"Qt.##Q#S#A#S#A#V#W#s#u#X#Y#Z#f#0#1#N#2#N#N#N#3#4#N.Z#5#6#7.#QtQt",
"Qt.##8#9a.a##2aaab#t#vac#t#Z#Wadae#2a.#4#4#4#4#2#Qafagahaiaj.#Qt",
"QtQt.##1#2#4#4#4ak#k#J#Jac#Y#yalam#0a#a#a.#4#4#N#Vanalaoapaq.#Qt",
"QtQtQt.#amarasatasauavaw#Dararapaxay#5aeasakatazazadalae#TaA.#Qt",
"QtQtQtQt.#ayaB#y#0aCaDaiaEaFaGaxaCaHaiapaganas#0afaf#0aIaJ#Z.#Qt",
"QtQtQtQt.#.C#X#IaK.#ayaD.IaL#caCaMaMaEap#5adasaNadaeafaO#LaP.#Qt",
"QtQtQtQtQt.#aQ#q.#.##TaGaGaEaEaRaEaFap#5aeasaNaIaeaeae.#.#.#QtQt",
"QtQtQtQtQtQt.#.#QtQt.##D#UaSaSaS#T#TaIaTaNaUaValagaral.#QtQtQtQt",
"QtQtQtQtQtQtQtQtQtQtQt.#.oaWaXaXaYaXaZaWaUa0ar#5ap#5alaf.#QtQtQt",
"QtQtQtQtQtQtQtQtQtQtQt.#aramaBaBarar#karag#5aoaEao#5arasa1.#QtQt",
"QtQtQtQtQtQtQtQtQtQtQtQt.#aRa2aiaHaHaMaMaia3a3aRao#5arata4a5.#Qt",
"QtQtQtQtQtQtQtQtQtQtQtQt.#ama2a6#6#6#6#6a6a2a3aEapaIana4a7a7.#Qt",
"QtQtQtQtQtQtQtQtQtQtQtQtQt.#.#aS#Ua8a8a8a9aS#TaI#0aza5a5a5a4b..#",
"QtQtQtQtQtQtQtQtQtQtQtQtQtQtQt.#b#babba#bcatbdbea7b#bfb#a7a4a1.#",
"QtQtQtQtQtQtQtQtQtQtQtQtQtQtQt.#bgbfb#a5a7a1bd.#.#bhbha7a4a1be.#",
"QtQtQtQtQtQtQtQtQtQtQtQtQtQtQtQt.#bibbbbb.a1be.#Qt.#bba7a1a1be.#",
"QtQtQtQtQtQtQtQtQtQtQtQtQtQtQtQtQt.#bbbjb.a7be.#Qt.#bbbjbka1bd.#",
"QtQtQtQtQtQtQtQtQtQtQtQtQtQtQtQtQt.#blbmbnbjbe.#Qt.#bnboblbja1.#",
"QtQtQtQtQtQtQtQtQtQtQtQtQtQtQtQtQt.#bobpbnbja1.#Qt.#bobpbnbjbk.#",
"QtQtQtQtQtQtQtQtQtQtQtQtQtQtQtQtQt.#blbjbjbka1.#Qt.#blbjbjbjbk.#",
"QtQtQtQtQtQtQtQtQtQtQtQtQtQtQtQtQtQt.#.#.#.#.#QtQtQt.#.#.#.#.#Qt"};
