<?xml version="1.0" encoding="UTF-8" standalone="no"?>
<!-- Created with Inkscape (http://www.inkscape.org/) -->
<svg xmlns:dc="http://purl.org/dc/elements/1.1/" xmlns:cc="http://creativecommons.org/ns#" xmlns:rdf="http://www.w3.org/1999/02/22-rdf-syntax-ns#" xmlns:svg="http://www.w3.org/2000/svg" xmlns="http://www.w3.org/2000/svg" xmlns:xlink="http://www.w3.org/1999/xlink" xmlns:sodipodi="http://sodipodi.sourceforge.net/DTD/sodipodi-0.dtd" xmlns:inkscape="http://www.inkscape.org/namespaces/inkscape" width="84" height="102" id="svg2" sodipodi:version="0.32" inkscape:version="0.46" sodipodi:docbase="/datas/Projs/Cliparts Stocker" sodipodi:docname="double_note_two.svg" inkscape:export-filename="/datas/Projs/Cliparts Stocker/double_note_two.png" inkscape:export-xdpi="90.000000" inkscape:export-ydpi="90.000000" inkscape:output_extension="org.inkscape.output.svg.inkscape" version="1.0">
  <defs id="defs4">
    <inkscape:perspective sodipodi:type="inkscape:persp3d" inkscape:vp_x="0 : 62.5 : 1" inkscape:vp_y="0 : 1000 : 0" inkscape:vp_z="125 : 62.5 : 1" inkscape:persp3d-origin="62.5 : 41.666667 : 1" id="perspective49"/>
    <linearGradient inkscape:collect="always" id="linearGradient2861">
      <stop style="stop-color: rgb(0, 0, 0); stop-opacity: 1;" offset="0" id="stop2863"/>
      <stop style="stop-color: rgb(149, 149, 149); stop-opacity: 1;" offset="1" id="stop2865"/>
    </linearGradient>
    <linearGradient inkscape:collect="always" id="linearGradient10794">
      <stop style="stop-color: rgb(152, 152, 152); stop-opacity: 1;" offset="0" id="stop10796"/>
      <stop style="stop-color: rgb(152, 152, 152); stop-opacity: 0;" offset="1" id="stop10798"/>
    </linearGradient>
    <linearGradient inkscape:collect="always" id="linearGradient10782">
      <stop style="stop-color: rgb(152, 152, 152); stop-opacity: 1;" offset="0" id="stop10784"/>
      <stop style="stop-color: rgb(152, 152, 152); stop-opacity: 0;" offset="1" id="stop10786"/>
    </linearGradient>
    <linearGradient inkscape:collect="always" id="linearGradient10765">
      <stop style="stop-color: rgb(152, 152, 152); stop-opacity: 1;" offset="0" id="stop10767"/>
      <stop style="stop-color: rgb(152, 152, 152); stop-opacity: 0;" offset="1" id="stop10769"/>
    </linearGradient>
    <linearGradient inkscape:collect="always" id="linearGradient10023">
      <stop style="stop-color: rgb(189, 189, 189); stop-opacity: 1;" offset="0" id="stop10025"/>
      <stop style="stop-color: rgb(189, 189, 189); stop-opacity: 0;" offset="1" id="stop10027"/>
    </linearGradient>
    <radialGradient inkscape:collect="always" xlink:href="#linearGradient10765" id="radialGradient10771" cx="16.073729" cy="98.385017" fx="16.073729" fy="98.385017" r="7.3950381" gradientTransform="matrix(2.75619, -0.499238, 0.651402, 2.58904, -91.8318, -148.813)" gradientUnits="userSpaceOnUse"/>
    <radialGradient inkscape:collect="always" xlink:href="#linearGradient10782" id="radialGradient10788" cx="16.886499" cy="97.809586" fx="16.886499" fy="97.809586" r="7.3950381" gradientTransform="matrix(2.45896, 1.52665, -1.1588, 2.20871, 89.003, -144.375)" gradientUnits="userSpaceOnUse"/>
    <linearGradient inkscape:collect="always" xlink:href="#linearGradient10023" id="linearGradient10792" x1="78.296486" y1="9.1397552" x2="76.947044" y2="32.225971" gradientUnits="userSpaceOnUse"/>
    <linearGradient inkscape:collect="always" xlink:href="#linearGradient10794" id="linearGradient10800" x1="46.517174" y1="14.790077" x2="46.517174" y2="138.12024" gradientUnits="userSpaceOnUse"/>
    <linearGradient inkscape:collect="always" xlink:href="#linearGradient10023" id="linearGradient10802" x1="91.111488" y1="12.215436" x2="89.799461" y2="129.93967" gradientUnits="userSpaceOnUse"/>
    <radialGradient inkscape:collect="always" xlink:href="#linearGradient10765" id="radialGradient10812" gradientUnits="userSpaceOnUse" gradientTransform="matrix(2.75619, -0.499238, 0.651402, 2.58904, -91.8318, -148.813)" cx="16.073729" cy="98.385017" fx="16.073729" fy="98.385017" r="7.3950381"/>
    <radialGradient inkscape:collect="always" xlink:href="#linearGradient10782" id="radialGradient10814" gradientUnits="userSpaceOnUse" gradientTransform="matrix(2.45896, 1.52665, -1.1588, 2.20871, 89.003, -144.375)" cx="16.886499" cy="97.809586" fx="16.886499" fy="97.809586" r="7.3950381"/>
    <linearGradient inkscape:collect="always" xlink:href="#linearGradient10023" id="linearGradient10816" gradientUnits="userSpaceOnUse" x1="78.296486" y1="9.1397552" x2="76.947044" y2="32.225971"/>
    <linearGradient inkscape:collect="always" xlink:href="#linearGradient10794" id="linearGradient10818" gradientUnits="userSpaceOnUse" x1="46.517174" y1="14.790077" x2="46.517174" y2="138.12024"/>
    <linearGradient inkscape:collect="always" xlink:href="#linearGradient10023" id="linearGradient10820" gradientUnits="userSpaceOnUse" x1="91.111488" y1="12.215436" x2="89.799461" y2="129.93967"/>
    <linearGradient inkscape:collect="always" xlink:href="#linearGradient10794" id="linearGradient1341" gradientUnits="userSpaceOnUse" gradientTransform="translate(8.75612, -0.911224)" x1="46.517174" y1="14.790077" x2="46.517174" y2="138.12024"/>
    <linearGradient inkscape:collect="always" xlink:href="#linearGradient10023" id="linearGradient1344" gradientUnits="userSpaceOnUse" gradientTransform="translate(9.23322, -0.911224)" x1="78.296486" y1="9.1397552" x2="76.947044" y2="32.225971"/>
    <radialGradient inkscape:collect="always" xlink:href="#linearGradient10782" id="radialGradient1347" gradientUnits="userSpaceOnUse" gradientTransform="matrix(0.507302, 2.99206, -2.50303, 0.629017, 307.65, -19.1405)" cx="16.886499" cy="97.809586" fx="16.886499" fy="97.809586" r="7.3950381"/>
    <radialGradient inkscape:collect="always" xlink:href="#linearGradient10765" id="radialGradient1350" gradientUnits="userSpaceOnUse" gradientTransform="matrix(2.27765, 1.81448, -1.55469, 2.3139, 142.419, -168.801)" cx="16.073729" cy="98.385017" fx="16.073729" fy="98.385017" r="7.3950381"/>
    <linearGradient inkscape:collect="always" xlink:href="#linearGradient2861" id="linearGradient2867" gradientUnits="userSpaceOnUse" gradientTransform="translate(9.00914, -1.0799)" x1="36.44677" y1="120.76648" x2="93.931129" y2="23.64933"/>
    <radialGradient inkscape:collect="always" xlink:href="#linearGradient10765" id="radialGradient2877" gradientUnits="userSpaceOnUse" gradientTransform="matrix(2.27765, 1.81448, -1.55469, 2.3139, 142.419, -168.801)" cx="16.073729" cy="98.385017" fx="16.073729" fy="98.385017" r="7.3950381"/>
    <radialGradient inkscape:collect="always" xlink:href="#linearGradient10782" id="radialGradient2879" gradientUnits="userSpaceOnUse" gradientTransform="matrix(0.507302, 2.99206, -2.50303, 0.629017, 307.65, -19.1405)" cx="16.886499" cy="97.809586" fx="16.886499" fy="97.809586" r="7.3950381"/>
    <linearGradient inkscape:collect="always" xlink:href="#linearGradient10023" id="linearGradient2881" gradientUnits="userSpaceOnUse" gradientTransform="translate(9.23322, -0.911224)" x1="78.296486" y1="9.1397552" x2="76.947044" y2="32.225971"/>
    <linearGradient inkscape:collect="always" xlink:href="#linearGradient10794" id="linearGradient2883" gradientUnits="userSpaceOnUse" gradientTransform="translate(8.75612, -0.911224)" x1="46.517174" y1="14.790077" x2="46.517174" y2="138.12024"/>
    <linearGradient inkscape:collect="always" xlink:href="#linearGradient2861" id="linearGradient2885" gradientUnits="userSpaceOnUse" gradientTransform="translate(9.00914, -1.0799)" x1="36.44677" y1="120.76648" x2="93.931129" y2="23.64933"/>
  </defs>
  <sodipodi:namedview id="base" pagecolor="#ffffff" bordercolor="#666666" borderopacity="1.0" inkscape:pageopacity="0.0" inkscape:pageshadow="2" inkscape:zoom="8.127451" inkscape:cx="28.034982" inkscape:cy="51" inkscape:document-units="px" inkscape:current-layer="layer1" inkscape:window-width="1680" inkscape:window-height="1003" inkscape:window-x="-4" inkscape:window-y="-4" showgrid="false"/>
  <metadata id="metadata7">
    <rdf:RDF>
      <cc:Work rdf:about="">
        <dc:format>image/svg+xml</dc:format>
        <dc:type rdf:resource="http://purl.org/dc/dcmitype/StillImage"/>
        <dc:title>Double Note Two</dc:title>
        <dc:date>2005-08-15</dc:date>
        <dc:creator>
          <cc:Agent>
            <dc:title>Jean-Victor Balin</dc:title>
          </cc:Agent>
        </dc:creator>
        <dc:description>jean.victor.balin@gmail.com</dc:description>
        <cc:license rdf:resource="http://creativecommons.org/licenses/publicdomain/"/>
        <dc:language>fr-FR</dc:language>
        <dc:subject>
          <rdf:Bag>
            <rdf:li>note</rdf:li>
            <rdf:li>music</rdf:li>
          </rdf:Bag>
        </dc:subject>
      </cc:Work>
      <cc:License rdf:about="http://creativecommons.org/licenses/publicdomain/">
        <cc:permits rdf:resource="http://creativecommons.org/ns#Reproduction"/>
        <cc:permits rdf:resource="http://creativecommons.org/ns#Distribution"/>
        <cc:permits rdf:resource="http://creativecommons.org/ns#DerivativeWorks"/>
      </cc:License>
    </rdf:RDF>
  </metadata>
  <g inkscape:label="Calque 1" inkscape:groupmode="layer" id="layer1">
    <g id="g2869" transform="translate(-20.4939, -11.505)">
      <path id="path1320" d="M 99.625,12.09375 C 99.105383,11.941731 98.471942,12.043613 97.6875,12.5 C 92.171703,15.560722 85.742296,16.077219 81.03125,16.625 C 76.369649,17.167032 72.626628,17.321035 68.03125,17.125 C 63.8035,16.944648 61.047152,16.719822 58.5625,16.25 C 56.771658,15.911371 54.388704,14.735968 53.34375,15.84375 C 56.281428,22.604651 57.403489,32.067276 57.25,37.3125 C 56.962653,47.047733 55.967901,54.146267 54.53125,62.375 C 53.129555,70.403518 50.340782,77.669782 47.78125,85.1875 C 45.937915,91.18111 42.051846,85.195549 39.28125,83.96875 C 35.288078,82.200603 31.773198,82.079026 27.90625,83.96875 C 24.039301,85.858478 21.875565,88.645337 20.90625,93.03125 C 19.958733,97.318533 22.150252,102.62958 25.71875,105.53125 C 29.184752,108.34958 34.311368,108.72806 38.46875,107.40625 C 42.571848,105.98527 46.27195,102.11349 47.8125,98.09375 C 48.601239,96.224308 49.066001,95.397022 50,92.4375 C 50.933997,89.477981 52.180362,85.140907 53.21875,81.4375 C 55.129775,74.621836 57.781625,68.411371 59.4375,53.0625 C 59.769581,50.360894 60.483701,43.788285 60.625,37.3125 C 61.668028,37.399982 62.868259,37.776515 63.90625,37.9375 C 66.336318,38.314388 69.045129,38.446076 73.15625,38.46875 C 77.624861,38.493392 81.245416,38.184096 85.75,37.46875 C 89.898434,36.809962 95.399828,36.055272 100.3125,33.46875 C 100.68312,39.313054 100.56114,48.398338 100.125,52.75 C 99.325212,60.730016 97.138421,74.145599 94.96875,81.8125 C 93.874635,85.678729 92.71004,88.602311 91.5,91.78125 C 89.900026,94.669326 86.24912,89.908831 83.84375,88.84375 C 79.850575,87.07561 76.335698,86.92277 72.46875,88.8125 C 68.601798,90.70223 66.406815,93.520329 65.4375,97.90625 C 64.48998,102.19353 66.681501,107.47333 70.25,110.375 C 73.715999,113.19333 78.842616,113.57181 83,112.25 C 87.103095,110.82902 90.803196,106.95725 92.34375,102.9375 C 96.516892,91.69934 98.735951,83.436426 99.78125,79.15625 C 101.2332,73.21092 103.98769,60.243296 104.28125,44 C 104.33618,40.960696 104.33279,32.636998 103.65625,25.8125 C 103.39938,23.221345 101.18385,12.549807 99.625,12.09375 z M 99.21875,24.3125 C 99.710724,26.251865 99.818296,28.009026 100,30.03125 C 94.915267,32.945329 89.070883,33.746364 84.71875,34.4375 C 80.214167,35.152848 76.593611,35.430894 72.125,35.40625 C 68.013885,35.383576 65.305066,35.251886 62.875,34.875 C 62.192947,34.769218 61.435907,34.547828 60.6875,34.375 C 60.660596,31.976918 60.522336,29.677266 60.21875,27.6875 C 66.608761,28.154984 69.160261,28.204683 71.96875,28.25 C 76.791692,28.326461 82.74516,27.691932 86.28125,27.09375 C 90.650694,26.354595 96.444939,24.810082 99.21875,24.3125 z" style="fill: rgb(0, 0, 0);"/>
      <path id="path2279" d="M 35.500372,98.292333 C 31.326139,102.05187 25.664554,102.50418 22.862905,99.301948 C 20.061255,96.099714 21.175237,90.449577 25.34947,86.690036 C 29.523702,82.930495 35.185287,82.478188 37.986936,85.680422 C 40.778964,88.871659 39.685866,94.49172 35.54109,98.255511" style="fill: url(#radialGradient2877) rgb(0, 0, 0); fill-opacity: 1; stroke: none; stroke-width: 2.5; stroke-linecap: round; stroke-linejoin: round; stroke-miterlimit: 4; stroke-opacity: 1;"/>
      <path id="path2281" d="M 80.049162,103.00369 C 75.874929,106.76323 70.213344,107.21554 67.411695,104.01331 C 64.610045,100.81107 65.724027,95.160934 69.89826,91.401393 C 74.072492,87.641852 79.734077,87.189545 82.535726,90.391779 C 85.327754,93.583016 84.234656,99.203077 80.08988,102.96687" style="fill: url(#radialGradient2879) rgb(0, 0, 0); fill-opacity: 1; stroke: none; stroke-width: 2.5; stroke-linecap: round; stroke-linejoin: round; stroke-miterlimit: 4; stroke-opacity: 1;"/>
      <path sodipodi:nodetypes="ccsscscssssc" id="path5636" d="M 98.889472,12.807526 C 98.646484,12.856659 98.364801,12.978705 98.014472,13.182526 C 92.357523,16.321574 85.832169,16.824379 81.139472,17.370026 C 76.455306,17.914682 72.667082,18.067169 68.045722,17.870026 C 66.563852,17.806811 65.442285,17.73435 64.264472,17.651276 C 68.676762,19.923491 72.923055,21.067446 77.176762,22.047417 C 88.7403,24.711429 94.351939,22.990463 102.35822,22.338776 C 101.99312,20.427372 101.54899,18.20387 101.01447,16.338776 C 100.71789,15.303922 100.40583,14.393196 100.10822,13.745026 C 99.959419,13.420941 99.79131,13.186882 99.670722,13.026276 C 99.550134,12.86567 99.474229,12.827003 99.514472,12.838776 C 99.347919,12.790049 99.13246,12.758393 98.889472,12.807526 z" style="fill: url(#linearGradient2881) rgb(0, 0, 0); fill-opacity: 1;"/>
      <path sodipodi:nodetypes="csccscscccscc" id="path7829" d="M 55.256123,15.807526 C 54.961178,15.786898 54.689542,15.801252 54.318623,15.838776 C 54.069479,15.863981 53.939444,15.956336 53.787373,16.057526 C 56.659461,22.883258 57.75301,32.105567 57.599873,37.338776 C 57.311873,47.096179 56.319139,54.227223 54.881123,62.463776 C 53.472918,70.529587 50.778771,77.683312 48.224873,85.182526 C 48.590532,84.832226 49.543329,83.135271 50.03451,81.62599 C 52.577289,73.812636 54.365143,70.551978 56.756123,55.588776 C 56.755729,55.578363 56.755729,55.567939 56.756123,55.557526 L 56.818623,55.307526 C 56.820264,55.297118 56.816985,55.286682 56.818623,55.276276 C 59.123108,40.640201 59.153968,27.851666 56.099873,15.995026 C 55.781042,15.913204 55.4911,15.82396 55.256123,15.807526 z" style="fill: url(#linearGradient2883) rgb(0, 0, 0); fill-opacity: 1;"/>
      <path sodipodi:nodetypes="csssssssccsscssccsscssssssssssssssccssssssssssc" id="path7834" d="M 99.875,24.84375 C 99.863093,24.852559 99.852558,24.86309 99.84375,24.875 C 99.833365,24.873907 99.822888,24.873906 99.8125,24.875 C 99.800593,24.883809 99.790058,24.89434 99.78125,24.90625 C 99.780159,24.916639 99.780156,24.927112 99.78125,24.9375 C 99.769343,24.946309 99.758808,24.95684 99.75,24.96875 C 99.748909,24.979139 99.748906,24.989612 99.75,25 C 99.748909,25.010389 99.748906,25.020862 99.75,25.03125 C 100.15057,26.833665 100.28732,29.089424 100.5,31.54821 C 100.01979,31.465631 99.494275,31.54102 98.8125,31.98571 C 93.575299,35.249725 90.074668,35.506736 85.522301,36.22967 C 81.017719,36.945018 74.656111,37.180894 70.1875,37.15625 C 66.91235,37.138187 64.898935,36.967228 62.84375,36.75 C 64.944485,37.094692 67.061581,37.373671 70.46875,37.5625 C 74.930583,37.809777 78.432607,37.835264 82.96724,37.34526 C 87.549976,36.850061 93.950413,36.280249 99.34375,33.28125 C 99.879848,32.968499 100.42678,32.862192 100.65625,33.03125 C 101.04708,38.879382 100.91247,48.197768 100.46875,52.625 C 99.667713,60.617475 97.488398,74.029843 95.3125,81.71875 C 94.2991,85.299782 93.267534,88.061692 92.15625,90.96875 C 92.144343,90.977557 92.133808,90.98809 92.125,91 C 92.123909,91.010387 92.123906,91.020862 92.125,91.03125 C 92.123909,91.041637 92.123906,91.052112 92.125,91.0625 C 92.133811,91.074409 92.14434,91.084942 92.15625,91.09375 C 92.155159,91.104137 92.155156,91.114612 92.15625,91.125 C 92.165061,91.136909 92.17559,91.147442 92.1875,91.15625 C 92.197891,91.157343 92.208362,91.157344 92.21875,91.15625 C 92.227561,91.168159 92.23809,91.178692 92.25,91.1875 C 92.260391,91.188593 92.270862,91.188594 92.28125,91.1875 C 92.291641,91.188593 92.302112,91.188594 92.3125,91.1875 C 92.324413,91.178691 92.334942,91.16816 92.34375,91.15625 C 92.354141,91.157343 92.364612,91.157344 92.375,91.15625 C 92.386913,91.147441 92.397442,91.13691 92.40625,91.125 C 92.869921,90.495375 93.519933,89.515298 94.1875,87.6875 C 95.803756,83.262198 98.297773,73.893903 100.375,59.625 L 100.40625,59.34375 C 101.36742,52.29441 101.66207,44.893606 101.5,37.28125 C 101.46268,35.528276 101.00121,28.769473 100.84375,27.78125 C 100.65817,26.616515 100.40598,25.702112 100.15625,25.125 C 100.12921,25.062502 100.11796,25.029584 100.09375,25 C 100.06955,24.970417 100.04464,24.96108 100.03125,24.9375 C 100.03235,24.927113 100.03235,24.916638 100.03125,24.90625 C 100.02244,24.894341 100.01191,24.883808 100,24.875 C 99.989615,24.873907 99.979138,24.873906 99.96875,24.875 C 99.959945,24.863091 99.94941,24.852558 99.9375,24.84375 C 99.927115,24.842657 99.916638,24.842656 99.90625,24.84375 C 99.895865,24.842657 99.885388,24.842656 99.875,24.84375 z" style="fill: url(#linearGradient2885) rgb(0, 0, 0); fill-opacity: 1;"/>
    </g>
  </g>
</svg>